<svg xmlns="http://www.w3.org/2000/svg" viewBox="0 0 512 512" width="100%" height="100%">
  <defs>
    <linearGradient id="shieldGrad" x1="0%" y1="0%" x2="100%" y2="100%">
      <stop offset="0%" stop-color="#ef4444" />
      <stop offset="100%" stop-color="#b91c1c" />
    </linearGradient>
    <filter id="shadow" x="-10%" y="-10%" width="120%" height="120%">
      <feDropShadow dx="0" dy="8" stdDeviation="12" flood-color="#dc2626" flood-opacity="0.25" />
    </filter>
  </defs>
  <!-- Shield shape -->
  <path d="M256,40 C340,40 430,70 430,150 C430,280 320,380 256,460 C192,380 82,280 82,150 C82,70 172,40 256,40 Z" fill="url(#shieldGrad)" filter="url(#shadow)" />
  <!-- Inner thin white border line -->
  <path d="M256,65 C322,65 395,90 395,150 C395,255 298,345 256,415 C214,345 117,255 117,150 C117,90 190,65 256,65 Z" fill="none" stroke="#ffffff" stroke-width="14" stroke-opacity="0.2" />
  <!-- Crisp Rounded Medical Cross -->
  <path d="M256,150 L256,310 M176,230 L336,230" stroke="#ffffff" stroke-width="44" stroke-linecap="round" stroke-linejoin="round" />
</svg>
